<?xml version="1.0" standalone="no"?>
<svg xmlns="http://www.w3.org/2000/svg" width="300" height="300"><defs><clipPath id="clip-path-dot-color"><path d="M 5 105v 10h 5a 5 5, 0, 0, 0, 0 -10" transform="rotate(180,10,110)"/><path d="M 5 135v 10h 5a 5 5, 0, 0, 0, 0 -10" transform="rotate(-90,10,140)"/><rect x="5" y="145" width="10" height="10" transform="rotate(0,10,150)"/><path d="M 5 155v 10h 10v -5a 5 5, 0, 0, 0, -5 -5" transform="rotate(180,10,160)"/><path d="M 5 175v 10h 5a 5 5, 0, 0, 0, 0 -10" transform="rotate(-90,10,180)"/><path d="M 5 185v 10h 5a 5 5, 0, 0, 0, 0 -10" transform="rotate(90,10,190)"/><circle cx="20" cy="90" r="5" transform="rotate(0,20,90)"/><rect x="15" y="105" width="10" height="10" transform="rotate(0,20,110)"/><path d="M 15 115v 10h 5a 5 5, 0, 0, 0, 0 -10" transform="rotate(90,20,120)"/><path d="M 15 155v 10h 10v -5a 5 5, 0, 0, 0, -5 -5" transform="rotate(0,20,160)"/><path d="M 15 165v 10h 10v -5a 5 5, 0, 0, 0, -5 -5" transform="rotate(180,20,170)"/><circle cx="20" cy="200" r="5" transform="rotate(0,20,200)"/><path d="M 25 105v 10h 5a 5 5, 0, 0, 0, 0 -10" transform="rotate(0,30,110)"/><path d="M 25 125v 10h 5a 5 5, 0, 0, 0, 0 -10" transform="rotate(-90,30,130)"/><path d="M 25 135v 10h 10v -5a 5 5, 0, 0, 0, -5 -5" transform="rotate(180,30,140)"/><rect x="25" y="165" width="10" height="10" transform="rotate(0,30,170)"/><circle cx="30" cy="190" r="5" transform="rotate(0,30,190)"/><path d="M 35 85v 10h 5a 5 5, 0, 0, 0, 0 -10" transform="rotate(180,40,90)"/><path d="M 35 135v 10h 10v -5a 5 5, 0, 0, 0, -5 -5" transform="rotate(0,40,140)"/><rect x="35" y="145" width="10" height="10" transform="rotate(0,40,150)"/><rect x="35" y="155" width="10" height="10" transform="rotate(0,40,160)"/><rect x="35" y="165" width="10" height="10" transform="rotate(0,40,170)"/><path d="M 35 175v 10h 5a 5 5, 0, 0, 0, 0 -10" transform="rotate(90,40,180)"/><path d="M 35 195v 10h 5a 5 5, 0, 0, 0, 0 -10" transform="rotate(180,40,200)"/><path d="M 45 85v 10h 10v -5a 5 5, 0, 0, 0, -5 -5" transform="rotate(0,50,90)"/><rect x="45" y="95" width="10" height="10" transform="rotate(0,50,100)"/><rect x="45" y="105" width="10" height="10" transform="rotate(0,50,110)"/><path d="M 45 115v 10h 10v -5a 5 5, 0, 0, 0, -5 -5" transform="rotate(180,50,120)"/><rect x="45" y="145" width="10" height="10" transform="rotate(0,50,150)"/><rect x="45" y="155" width="10" height="10" transform="rotate(0,50,160)"/><path d="M 45 185v 10h 10v -5a 5 5, 0, 0, 0, -5 -5" transform="rotate(-90,50,190)"/><path d="M 45 195v 10h 10v -5a 5 5, 0, 0, 0, -5 -5" transform="rotate(90,50,200)"/><rect x="55" y="105" width="10" height="10" transform="rotate(0,60,110)"/><rect x="55" y="115" width="10" height="10" transform="rotate(0,60,120)"/><path d="M 55 125v 10h 10v -5a 5 5, 0, 0, 0, -5 -5" transform="rotate(180,60,130)"/><rect x="55" y="145" width="10" height="10" transform="rotate(0,60,150)"/><rect x="55" y="155" width="10" height="10" transform="rotate(0,60,160)"/><rect x="55" y="165" width="10" height="10" transform="rotate(0,60,170)"/><rect x="55" y="175" width="10" height="10" transform="rotate(0,60,180)"/><rect x="55" y="185" width="10" height="10" transform="rotate(0,60,190)"/><path d="M 55 205v 10h 5a 5 5, 0, 0, 0, 0 -10" transform="rotate(180,60,210)"/><path d="M 65 85v 10h 5a 5 5, 0, 0, 0, 0 -10" transform="rotate(180,70,90)"/><rect x="65" y="105" width="10" height="10" transform="rotate(0,70,110)"/><rect x="65" y="125" width="10" height="10" transform="rotate(0,70,130)"/><path d="M 65 145v 10h 5a 5 5, 0, 0, 0, 0 -10" transform="rotate(0,70,150)"/><rect x="65" y="165" width="10" height="10" transform="rotate(0,70,170)"/><path d="M 65 185v 10h 5a 5 5, 0, 0, 0, 0 -10" transform="rotate(0,70,190)"/><rect x="65" y="205" width="10" height="10" transform="rotate(0,70,210)"/><rect x="75" y="85" width="10" height="10" transform="rotate(0,80,90)"/><rect x="75" y="95" width="10" height="10" transform="rotate(0,80,100)"/><path d="M 75 105v 10h 10v -5a 5 5, 0, 0, 0, -5 -5" transform="rotate(90,80,110)"/><path d="M 75 125v 10h 5a 5 5, 0, 0, 0, 0 -10" transform="rotate(0,80,130)"/><path d="M 75 165v 10h 5a 5 5, 0, 0, 0, 0 -10" transform="rotate(0,80,170)"/><path d="M 75 195v 10h 5a 5 5, 0, 0, 0, 0 -10" transform="rotate(-90,80,200)"/><path d="M 75 205v 10h 10v -5a 5 5, 0, 0, 0, -5 -5" transform="rotate(90,80,210)"/><path d="M 85 15v 10h 5a 5 5, 0, 0, 0, 0 -10" transform="rotate(180,90,20)"/><path d="M 85 35v 10h 10v -5a 5 5, 0, 0, 0, -5 -5" transform="rotate(-90,90,40)"/><rect x="85" y="45" width="10" height="10" transform="rotate(0,90,50)"/><rect x="85" y="55" width="10" height="10" transform="rotate(0,90,60)"/><path d="M 85 65v 10h 5a 5 5, 0, 0, 0, 0 -10" transform="rotate(90,90,70)"/><path d="M 85 85v 10h 10v -5a 5 5, 0, 0, 0, -5 -5" transform="rotate(0,90,90)"/><rect x="85" y="95" width="10" height="10" transform="rotate(0,90,100)"/><circle cx="90" cy="120" r="5" transform="rotate(0,90,120)"/><circle cx="90" cy="150" r="5" transform="rotate(0,90,150)"/><path d="M 85 175v 10h 5a 5 5, 0, 0, 0, 0 -10" transform="rotate(180,90,180)"/><path d="M 85 215v 10h 10v -5a 5 5, 0, 0, 0, -5 -5" transform="rotate(-90,90,220)"/><path d="M 85 225v 10h 5a 5 5, 0, 0, 0, 0 -10" transform="rotate(90,90,230)"/><path d="M 85 245v 10h 10v -5a 5 5, 0, 0, 0, -5 -5" transform="rotate(-90,90,250)"/><path d="M 85 255v 10h 10v -5a 5 5, 0, 0, 0, -5 -5" transform="rotate(180,90,260)"/><path d="M 85 275v 10h 5a 5 5, 0, 0, 0, 0 -10" transform="rotate(180,90,280)"/><rect x="95" y="15" width="10" height="10" transform="rotate(0,100,20)"/><rect x="95" y="25" width="10" height="10" transform="rotate(0,100,30)"/><rect x="95" y="35" width="10" height="10" transform="rotate(0,100,40)"/><rect x="95" y="45" width="10" height="10" transform="rotate(0,100,50)"/><path d="M 95 55v 10h 10v -5a 5 5, 0, 0, 0, -5 -5" transform="rotate(90,100,60)"/><circle cx="100" cy="80" r="5" transform="rotate(0,100,80)"/><rect x="95" y="95" width="10" height="10" transform="rotate(0,100,100)"/><path d="M 95 105v 10h 5a 5 5, 0, 0, 0, 0 -10" transform="rotate(90,100,110)"/><circle cx="100" cy="140" r="5" transform="rotate(0,100,140)"/><circle cx="100" cy="160" r="5" transform="rotate(0,100,160)"/><path d="M 95 175v 10h 10v -5a 5 5, 0, 0, 0, -5 -5" transform="rotate(0,100,180)"/><rect x="95" y="185" width="10" height="10" transform="rotate(0,100,190)"/><path d="M 95 195v 10h 5a 5 5, 0, 0, 0, 0 -10" transform="rotate(90,100,200)"/><rect x="95" y="215" width="10" height="10" transform="rotate(0,100,220)"/><path d="M 95 235v 10h 10v -5a 5 5, 0, 0, 0, -5 -5" transform="rotate(-90,100,240)"/><rect x="95" y="245" width="10" height="10" transform="rotate(0,100,250)"/><rect x="95" y="255" width="10" height="10" transform="rotate(0,100,260)"/><path d="M 95 275v 10h 5a 5 5, 0, 0, 0, 0 -10" transform="rotate(0,100,280)"/><path d="M 105 5v 10h 5a 5 5, 0, 0, 0, 0 -10" transform="rotate(-90,110,10)"/><rect x="105" y="15" width="10" height="10" transform="rotate(0,110,20)"/><path d="M 105 45v 10h 5a 5 5, 0, 0, 0, 0 -10" transform="rotate(0,110,50)"/><circle cx="110" cy="70" r="5" transform="rotate(0,110,70)"/><path d="M 105 85v 10h 5a 5 5, 0, 0, 0, 0 -10" transform="rotate(-90,110,90)"/><path d="M 105 95v 10h 10v -5a 5 5, 0, 0, 0, -5 -5" transform="rotate(90,110,100)"/><path d="M 105 215v 10h 10v -5a 5 5, 0, 0, 0, -5 -5" transform="rotate(0,110,220)"/><rect x="105" y="225" width="10" height="10" transform="rotate(0,110,230)"/><rect x="105" y="235" width="10" height="10" transform="rotate(0,110,240)"/><rect x="105" y="245" width="10" height="10" transform="rotate(0,110,250)"/><rect x="105" y="255" width="10" height="10" transform="rotate(0,110,260)"/><path d="M 105 265v 10h 5a 5 5, 0, 0, 0, 0 -10" transform="rotate(90,110,270)"/><path d="M 115 15v 10h 10v -5a 5 5, 0, 0, 0, -5 -5" transform="rotate(0,120,20)"/><rect x="115" y="25" width="10" height="10" transform="rotate(0,120,30)"/><path d="M 115 35v 10h 5a 5 5, 0, 0, 0, 0 -10" transform="rotate(90,120,40)"/><path d="M 115 55v 10h 5a 5 5, 0, 0, 0, 0 -10" transform="rotate(180,120,60)"/><path d="M 115 245v 10h 5a 5 5, 0, 0, 0, 0 -10" transform="rotate(0,120,250)"/><circle cx="120" cy="290" r="5" transform="rotate(0,120,290)"/><path d="M 125 25v 10h 5a 5 5, 0, 0, 0, 0 -10" transform="rotate(0,130,30)"/><path d="M 125 55v 10h 10v -5a 5 5, 0, 0, 0, -5 -5" transform="rotate(0,130,60)"/><path d="M 125 65v 10h 5a 5 5, 0, 0, 0, 0 -10" transform="rotate(90,130,70)"/><path d="M 125 95v 10h 5a 5 5, 0, 0, 0, 0 -10" transform="rotate(180,130,100)"/><path d="M 125 195v 10h 5a 5 5, 0, 0, 0, 0 -10" transform="rotate(-90,130,200)"/><rect x="125" y="205" width="10" height="10" transform="rotate(0,130,210)"/><rect x="125" y="215" width="10" height="10" transform="rotate(0,130,220)"/><path d="M 125 225v 10h 10v -5a 5 5, 0, 0, 0, -5 -5" transform="rotate(180,130,230)"/><circle cx="130" cy="260" r="5" transform="rotate(0,130,260)"/><circle cx="130" cy="280" r="5" transform="rotate(0,130,280)"/><circle cx="140" cy="10" r="5" transform="rotate(0,140,10)"/><path d="M 135 45v 10h 5a 5 5, 0, 0, 0, 0 -10" transform="rotate(180,140,50)"/><path d="M 135 95v 10h 5a 5 5, 0, 0, 0, 0 -10" transform="rotate(0,140,100)"/><rect x="135" y="225" width="10" height="10" transform="rotate(0,140,230)"/><circle cx="140" cy="250" r="5" transform="rotate(0,140,250)"/><circle cx="140" cy="270" r="5" transform="rotate(0,140,270)"/><path d="M 135 285v 10h 5a 5 5, 0, 0, 0, 0 -10" transform="rotate(180,140,290)"/><path d="M 145 15v 10h 10v -5a 5 5, 0, 0, 0, -5 -5" transform="rotate(-90,150,20)"/><path d="M 145 25v 10h 10v -5a 5 5, 0, 0, 0, -5 -5" transform="rotate(180,150,30)"/><path d="M 145 45v 10h 10v -5a 5 5, 0, 0, 0, -5 -5" transform="rotate(0,150,50)"/><rect x="145" y="55" width="10" height="10" transform="rotate(0,150,60)"/><path d="M 145 65v 10h 5a 5 5, 0, 0, 0, 0 -10" transform="rotate(90,150,70)"/><path d="M 145 195v 10h 10v -5a 5 5, 0, 0, 0, -5 -5" transform="rotate(-90,150,200)"/><path d="M 145 205v 10h 5a 5 5, 0, 0, 0, 0 -10" transform="rotate(90,150,210)"/><rect x="145" y="225" width="10" height="10" transform="rotate(0,150,230)"/><path d="M 145 235v 10h 5a 5 5, 0, 0, 0, 0 -10" transform="rotate(90,150,240)"/><path d="M 145 255v 10h 5a 5 5, 0, 0, 0, 0 -10" transform="rotate(180,150,260)"/><path d="M 145 285v 10h 5a 5 5, 0, 0, 0, 0 -10" transform="rotate(0,150,290)"/><rect x="155" y="15" width="10" height="10" transform="rotate(0,160,20)"/><rect x="155" y="25" width="10" height="10" transform="rotate(0,160,30)"/><path d="M 155 35v 10h 5a 5 5, 0, 0, 0, 0 -10" transform="rotate(90,160,40)"/><path d="M 155 55v 10h 5a 5 5, 0, 0, 0, 0 -10" transform="rotate(0,160,60)"/><circle cx="160" cy="90" r="5" transform="rotate(0,160,90)"/><path d="M 155 195v 10h 5a 5 5, 0, 0, 0, 0 -10" transform="rotate(0,160,200)"/><path d="M 155 215v 10h 5a 5 5, 0, 0, 0, 0 -10" transform="rotate(-90,160,220)"/><path d="M 155 225v 10h 10v -5a 5 5, 0, 0, 0, -5 -5" transform="rotate(90,160,230)"/><path d="M 155 245v 10h 5a 5 5, 0, 0, 0, 0 -10" transform="rotate(-90,160,250)"/><rect x="155" y="255" width="10" height="10" transform="rotate(0,160,260)"/><rect x="155" y="265" width="10" height="10" transform="rotate(0,160,270)"/><path d="M 155 275v 10h 5a 5 5, 0, 0, 0, 0 -10" transform="rotate(90,160,280)"/><rect x="165" y="15" width="10" height="10" transform="rotate(0,170,20)"/><circle cx="170" cy="50" r="5" transform="rotate(0,170,50)"/><circle cx="170" cy="70" r="5" transform="rotate(0,170,70)"/><path d="M 165 205v 10h 5a 5 5, 0, 0, 0, 0 -10" transform="rotate(180,170,210)"/><circle cx="170" cy="240" r="5" transform="rotate(0,170,240)"/><rect x="165" y="255" width="10" height="10" transform="rotate(0,170,260)"/><circle cx="170" cy="290" r="5" transform="rotate(0,170,290)"/><path d="M 175 5v 10h 10v -5a 5 5, 0, 0, 0, -5 -5" transform="rotate(-90,180,10)"/><rect x="175" y="15" width="10" height="10" transform="rotate(0,180,20)"/><path d="M 175 35v 10h 5a 5 5, 0, 0, 0, 0 -10" transform="rotate(180,180,40)"/><circle cx="180" cy="60" r="5" transform="rotate(0,180,60)"/><path d="M 175 95v 10h 5a 5 5, 0, 0, 0, 0 -10" transform="rotate(180,180,100)"/><path d="M 175 195v 10h 10v -5a 5 5, 0, 0, 0, -5 -5" transform="rotate(-90,180,200)"/><path d="M 175 205v 10h 10v -5a 5 5, 0, 0, 0, -5 -5" transform="rotate(90,180,210)"/><path d="M 175 245v 10h 5a 5 5, 0, 0, 0, 0 -10" transform="rotate(-90,180,250)"/><rect x="175" y="255" width="10" height="10" transform="rotate(0,180,260)"/><path d="M 175 265v 10h 5a 5 5, 0, 0, 0, 0 -10" transform="rotate(90,180,270)"/><rect x="185" y="5" width="10" height="10" transform="rotate(0,190,10)"/><rect x="185" y="15" width="10" height="10" transform="rotate(0,190,20)"/><rect x="185" y="25" width="10" height="10" transform="rotate(0,190,30)"/><rect x="185" y="35" width="10" height="10" transform="rotate(0,190,40)"/><path d="M 185 45v 10h 5a 5 5, 0, 0, 0, 0 -10" transform="rotate(90,190,50)"/><path d="M 185 65v 10h 5a 5 5, 0, 0, 0, 0 -10" transform="rotate(-90,190,70)"/><path d="M 185 75v 10h 10v -5a 5 5, 0, 0, 0, -5 -5" transform="rotate(180,190,80)"/><path d="M 185 95v 10h 5a 5 5, 0, 0, 0, 0 -10" transform="rotate(0,190,100)"/><path d="M 185 195v 10h 5a 5 5, 0, 0, 0, 0 -10" transform="rotate(0,190,200)"/><circle cx="190" cy="240" r="5" transform="rotate(0,190,240)"/><path d="M 185 285v 10h 5a 5 5, 0, 0, 0, 0 -10" transform="rotate(180,190,290)"/><rect x="195" y="5" width="10" height="10" transform="rotate(0,200,10)"/><rect x="195" y="15" width="10" height="10" transform="rotate(0,200,20)"/><rect x="195" y="25" width="10" height="10" transform="rotate(0,200,30)"/><path d="M 195 35v 10h 10v -5a 5 5, 0, 0, 0, -5 -5" transform="rotate(90,200,40)"/><rect x="195" y="75" width="10" height="10" transform="rotate(0,200,80)"/><path d="M 195 85v 10h 10v -5a 5 5, 0, 0, 0, -5 -5" transform="rotate(180,200,90)"/><path d="M 195 105v 10h 10v -5a 5 5, 0, 0, 0, -5 -5" transform="rotate(-90,200,110)"/><path d="M 195 115v 10h 10v -5a 5 5, 0, 0, 0, -5 -5" transform="rotate(180,200,120)"/><path d="M 195 135v 10h 10v -5a 5 5, 0, 0, 0, -5 -5" transform="rotate(-90,200,140)"/><rect x="195" y="145" width="10" height="10" transform="rotate(0,200,150)"/><rect x="195" y="155" width="10" height="10" transform="rotate(0,200,160)"/><path d="M 195 165v 10h 10v -5a 5 5, 0, 0, 0, -5 -5" transform="rotate(180,200,170)"/><path d="M 195 215v 10h 10v -5a 5 5, 0, 0, 0, -5 -5" transform="rotate(-90,200,220)"/><path d="M 195 225v 10h 10v -5a 5 5, 0, 0, 0, -5 -5" transform="rotate(180,200,230)"/><path d="M 195 245v 10h 5a 5 5, 0, 0, 0, 0 -10" transform="rotate(180,200,250)"/><path d="M 195 265v 10h 10v -5a 5 5, 0, 0, 0, -5 -5" transform="rotate(-90,200,270)"/><rect x="195" y="275" width="10" height="10" transform="rotate(0,200,280)"/><path d="M 195 285v 10h 10v -5a 5 5, 0, 0, 0, -5 -5" transform="rotate(90,200,290)"/><path d="M 205 5v 10h 10v -5a 5 5, 0, 0, 0, -5 -5" transform="rotate(0,210,10)"/><path d="M 205 15v 10h 10v -5a 5 5, 0, 0, 0, -5 -5" transform="rotate(90,210,20)"/><path d="M 205 65v 10h 5a 5 5, 0, 0, 0, 0 -10" transform="rotate(-90,210,70)"/><rect x="205" y="75" width="10" height="10" transform="rotate(0,210,80)"/><rect x="205" y="85" width="10" height="10" transform="rotate(0,210,90)"/><rect x="205" y="95" width="10" height="10" transform="rotate(0,210,100)"/><rect x="205" y="105" width="10" height="10" transform="rotate(0,210,110)"/><rect x="205" y="115" width="10" height="10" transform="rotate(0,210,120)"/><rect x="205" y="125" width="10" height="10" transform="rotate(0,210,130)"/><path d="M 205 135v 10h 10v -5a 5 5, 0, 0, 0, -5 -5" transform="rotate(90,210,140)"/><path d="M 205 165v 10h 10v -5a 5 5, 0, 0, 0, -5 -5" transform="rotate(0,210,170)"/><path d="M 205 175v 10h 10v -5a 5 5, 0, 0, 0, -5 -5" transform="rotate(180,210,180)"/><path d="M 205 195v 10h 5a 5 5, 0, 0, 0, 0 -10" transform="rotate(-90,210,200)"/><rect x="205" y="205" width="10" height="10" transform="rotate(0,210,210)"/><rect x="205" y="215" width="10" height="10" transform="rotate(0,210,220)"/><rect x="205" y="225" width="10" height="10" transform="rotate(0,210,230)"/><rect x="205" y="235" width="10" height="10" transform="rotate(0,210,240)"/><rect x="205" y="245" width="10" height="10" transform="rotate(0,210,250)"/><rect x="205" y="255" width="10" height="10" transform="rotate(0,210,260)"/><rect x="205" y="265" width="10" height="10" transform="rotate(0,210,270)"/><path d="M 215 85v 10h 10v -5a 5 5, 0, 0, 0, -5 -5" transform="rotate(0,220,90)"/><path d="M 215 95v 10h 10v -5a 5 5, 0, 0, 0, -5 -5" transform="rotate(90,220,100)"/><rect x="215" y="115" width="10" height="10" transform="rotate(0,220,120)"/><path d="M 215 125v 10h 10v -5a 5 5, 0, 0, 0, -5 -5" transform="rotate(90,220,130)"/><path d="M 215 155v 10h 5a 5 5, 0, 0, 0, 0 -10" transform="rotate(180,220,160)"/><rect x="215" y="175" width="10" height="10" transform="rotate(0,220,180)"/><path d="M 215 185v 10h 10v -5a 5 5, 0, 0, 0, -5 -5" transform="rotate(180,220,190)"/><rect x="215" y="205" width="10" height="10" transform="rotate(0,220,210)"/><rect x="215" y="245" width="10" height="10" transform="rotate(0,220,250)"/><rect x="215" y="255" width="10" height="10" transform="rotate(0,220,260)"/><rect x="215" y="265" width="10" height="10" transform="rotate(0,220,270)"/><path d="M 225 115v 10h 5a 5 5, 0, 0, 0, 0 -10" transform="rotate(0,230,120)"/><rect x="225" y="155" width="10" height="10" transform="rotate(0,230,160)"/><rect x="225" y="175" width="10" height="10" transform="rotate(0,230,180)"/><rect x="225" y="185" width="10" height="10" transform="rotate(0,230,190)"/><rect x="225" y="195" width="10" height="10" transform="rotate(0,230,200)"/><rect x="225" y="205" width="10" height="10" transform="rotate(0,230,210)"/><circle cx="230" cy="230" r="5" transform="rotate(0,230,230)"/><rect x="225" y="245" width="10" height="10" transform="rotate(0,230,250)"/><path d="M 225 265v 10h 5a 5 5, 0, 0, 0, 0 -10" transform="rotate(0,230,270)"/><path d="M 235 85v 10h 10v -5a 5 5, 0, 0, 0, -5 -5" transform="rotate(-90,240,90)"/><path d="M 235 95v 10h 10v -5a 5 5, 0, 0, 0, -5 -5" transform="rotate(180,240,100)"/><path d="M 235 155v 10h 5a 5 5, 0, 0, 0, 0 -10" transform="rotate(0,240,160)"/><path d="M 235 175v 10h 5a 5 5, 0, 0, 0, 0 -10" transform="rotate(0,240,180)"/><rect x="235" y="195" width="10" height="10" transform="rotate(0,240,200)"/><rect x="235" y="205" width="10" height="10" transform="rotate(0,240,210)"/><rect x="235" y="245" width="10" height="10" transform="rotate(0,240,250)"/><path d="M 235 255v 10h 5a 5 5, 0, 0, 0, 0 -10" transform="rotate(90,240,260)"/><path d="M 235 275v 10h 5a 5 5, 0, 0, 0, 0 -10" transform="rotate(180,240,280)"/><rect x="245" y="85" width="10" height="10" transform="rotate(0,250,90)"/><rect x="245" y="95" width="10" height="10" transform="rotate(0,250,100)"/><path d="M 245 115v 10h 10v -5a 5 5, 0, 0, 0, -5 -5" transform="rotate(-90,250,120)"/><path d="M 245 125v 10h 10v -5a 5 5, 0, 0, 0, -5 -5" transform="rotate(180,250,130)"/><circle cx="250" cy="170" r="5" transform="rotate(0,250,170)"/><path d="M 245 185v 10h 10v -5a 5 5, 0, 0, 0, -5 -5" transform="rotate(-90,250,190)"/><rect x="245" y="195" width="10" height="10" transform="rotate(0,250,200)"/><rect x="245" y="205" width="10" height="10" transform="rotate(0,250,210)"/><rect x="245" y="215" width="10" height="10" transform="rotate(0,250,220)"/><rect x="245" y="225" width="10" height="10" transform="rotate(0,250,230)"/><rect x="245" y="235" width="10" height="10" transform="rotate(0,250,240)"/><path d="M 245 245v 10h 10v -5a 5 5, 0, 0, 0, -5 -5" transform="rotate(90,250,250)"/><rect x="245" y="275" width="10" height="10" transform="rotate(0,250,280)"/><path d="M 245 285v 10h 5a 5 5, 0, 0, 0, 0 -10" transform="rotate(90,250,290)"/><path d="M 255 85v 10h 10v -5a 5 5, 0, 0, 0, -5 -5" transform="rotate(0,260,90)"/><path d="M 255 95v 10h 10v -5a 5 5, 0, 0, 0, -5 -5" transform="rotate(90,260,100)"/><path d="M 255 115v 10h 10v -5a 5 5, 0, 0, 0, -5 -5" transform="rotate(0,260,120)"/><rect x="255" y="125" width="10" height="10" transform="rotate(0,260,130)"/><rect x="255" y="185" width="10" height="10" transform="rotate(0,260,190)"/><rect x="255" y="235" width="10" height="10" transform="rotate(0,260,240)"/><path d="M 255 255v 10h 5a 5 5, 0, 0, 0, 0 -10" transform="rotate(-90,260,260)"/><rect x="255" y="265" width="10" height="10" transform="rotate(0,260,270)"/><rect x="255" y="275" width="10" height="10" transform="rotate(0,260,280)"/><circle cx="270" cy="110" r="5" transform="rotate(0,270,110)"/><rect x="265" y="125" width="10" height="10" transform="rotate(0,270,130)"/><path d="M 265 145v 10h 5a 5 5, 0, 0, 0, 0 -10" transform="rotate(-90,270,150)"/><path d="M 265 155v 10h 10v -5a 5 5, 0, 0, 0, -5 -5" transform="rotate(180,270,160)"/><path d="M 265 175v 10h 5a 5 5, 0, 0, 0, 0 -10" transform="rotate(-90,270,180)"/><rect x="265" y="185" width="10" height="10" transform="rotate(0,270,190)"/><path d="M 265 205v 10h 5a 5 5, 0, 0, 0, 0 -10" transform="rotate(-90,270,210)"/><path d="M 265 215v 10h 10v -5a 5 5, 0, 0, 0, -5 -5" transform="rotate(180,270,220)"/><path d="M 265 235v 10h 10v -5a 5 5, 0, 0, 0, -5 -5" transform="rotate(0,270,240)"/><path d="M 265 245v 10h 10v -5a 5 5, 0, 0, 0, -5 -5" transform="rotate(180,270,250)"/><path d="M 265 275v 10h 10v -5a 5 5, 0, 0, 0, -5 -5" transform="rotate(0,270,280)"/><path d="M 265 285v 10h 10v -5a 5 5, 0, 0, 0, -5 -5" transform="rotate(180,270,290)"/><circle cx="280" cy="90" r="5" transform="rotate(0,280,90)"/><rect x="275" y="125" width="10" height="10" transform="rotate(0,280,130)"/><path d="M 275 135v 10h 10v -5a 5 5, 0, 0, 0, -5 -5" transform="rotate(180,280,140)"/><path d="M 275 155v 10h 5a 5 5, 0, 0, 0, 0 -10" transform="rotate(0,280,160)"/><rect x="275" y="185" width="10" height="10" transform="rotate(0,280,190)"/><path d="M 275 195v 10h 10v -5a 5 5, 0, 0, 0, -5 -5" transform="rotate(180,280,200)"/><rect x="275" y="215" width="10" height="10" transform="rotate(0,280,220)"/><rect x="275" y="245" width="10" height="10" transform="rotate(0,280,250)"/><rect x="275" y="255" width="10" height="10" transform="rotate(0,280,260)"/><path d="M 275 265v 10h 5a 5 5, 0, 0, 0, 0 -10" transform="rotate(90,280,270)"/><path d="M 275 285v 10h 5a 5 5, 0, 0, 0, 0 -10" transform="rotate(0,280,290)"/><path d="M 285 115v 10h 5a 5 5, 0, 0, 0, 0 -10" transform="rotate(-90,290,120)"/><rect x="285" y="125" width="10" height="10" transform="rotate(0,290,130)"/><path d="M 285 135v 10h 10v -5a 5 5, 0, 0, 0, -5 -5" transform="rotate(90,290,140)"/><path d="M 285 185v 10h 10v -5a 5 5, 0, 0, 0, -5 -5" transform="rotate(0,290,190)"/><rect x="285" y="195" width="10" height="10" transform="rotate(0,290,200)"/><rect x="285" y="205" width="10" height="10" transform="rotate(0,290,210)"/><path d="M 285 215v 10h 10v -5a 5 5, 0, 0, 0, -5 -5" transform="rotate(90,290,220)"/><path d="M 285 235v 10h 5a 5 5, 0, 0, 0, 0 -10" transform="rotate(-90,290,240)"/><path d="M 285 245v 10h 10v -5a 5 5, 0, 0, 0, -5 -5" transform="rotate(90,290,250)"/><path d="M 5 5v 10h 10v -5a 5 5, 0, 0, 0, -5 -5" transform="rotate(-90,10,10)"/><rect x="5" y="15" width="10" height="10" transform="rotate(0,10,20)"/><rect x="5" y="25" width="10" height="10" transform="rotate(0,10,30)"/><rect x="5" y="35" width="10" height="10" transform="rotate(0,10,40)"/><rect x="5" y="45" width="10" height="10" transform="rotate(0,10,50)"/><rect x="5" y="55" width="10" height="10" transform="rotate(0,10,60)"/><path d="M 5 65v 10h 10v -5a 5 5, 0, 0, 0, -5 -5" transform="rotate(180,10,70)"/><rect x="15" y="5" width="10" height="10" transform="rotate(0,20,10)"/><rect x="15" y="65" width="10" height="10" transform="rotate(0,20,70)"/><rect x="25" y="5" width="10" height="10" transform="rotate(0,30,10)"/><rect x="25" y="65" width="10" height="10" transform="rotate(0,30,70)"/><rect x="35" y="5" width="10" height="10" transform="rotate(0,40,10)"/><rect x="35" y="65" width="10" height="10" transform="rotate(0,40,70)"/><rect x="45" y="5" width="10" height="10" transform="rotate(0,50,10)"/><rect x="45" y="65" width="10" height="10" transform="rotate(0,50,70)"/><rect x="55" y="5" width="10" height="10" transform="rotate(0,60,10)"/><rect x="55" y="65" width="10" height="10" transform="rotate(0,60,70)"/><path d="M 65 5v 10h 10v -5a 5 5, 0, 0, 0, -5 -5" transform="rotate(0,70,10)"/><rect x="65" y="15" width="10" height="10" transform="rotate(0,70,20)"/><rect x="65" y="25" width="10" height="10" transform="rotate(0,70,30)"/><rect x="65" y="35" width="10" height="10" transform="rotate(0,70,40)"/><rect x="65" y="45" width="10" height="10" transform="rotate(0,70,50)"/><rect x="65" y="55" width="10" height="10" transform="rotate(0,70,60)"/><path d="M 65 65v 10h 10v -5a 5 5, 0, 0, 0, -5 -5" transform="rotate(90,70,70)"/><path d="M 25 25v 10h 10v -5a 5 5, 0, 0, 0, -5 -5" transform="rotate(-90,30,30)"/><rect x="25" y="35" width="10" height="10" transform="rotate(0,30,40)"/><path d="M 25 45v 10h 10v -5a 5 5, 0, 0, 0, -5 -5" transform="rotate(180,30,50)"/><rect x="35" y="25" width="10" height="10" transform="rotate(0,40,30)"/><rect x="35" y="35" width="10" height="10" transform="rotate(0,40,40)"/><rect x="35" y="45" width="10" height="10" transform="rotate(0,40,50)"/><path d="M 45 25v 10h 10v -5a 5 5, 0, 0, 0, -5 -5" transform="rotate(0,50,30)"/><rect x="45" y="35" width="10" height="10" transform="rotate(0,50,40)"/><path d="M 45 45v 10h 10v -5a 5 5, 0, 0, 0, -5 -5" transform="rotate(90,50,50)"/><path d="M 225 5v 10h 10v -5a 5 5, 0, 0, 0, -5 -5" transform="rotate(-90,230,10)"/><rect x="225" y="15" width="10" height="10" transform="rotate(0,230,20)"/><rect x="225" y="25" width="10" height="10" transform="rotate(0,230,30)"/><rect x="225" y="35" width="10" height="10" transform="rotate(0,230,40)"/><rect x="225" y="45" width="10" height="10" transform="rotate(0,230,50)"/><rect x="225" y="55" width="10" height="10" transform="rotate(0,230,60)"/><path d="M 225 65v 10h 10v -5a 5 5, 0, 0, 0, -5 -5" transform="rotate(180,230,70)"/><rect x="235" y="5" width="10" height="10" transform="rotate(0,240,10)"/><rect x="235" y="65" width="10" height="10" transform="rotate(0,240,70)"/><rect x="245" y="5" width="10" height="10" transform="rotate(0,250,10)"/><rect x="245" y="65" width="10" height="10" transform="rotate(0,250,70)"/><rect x="255" y="5" width="10" height="10" transform="rotate(0,260,10)"/><rect x="255" y="65" width="10" height="10" transform="rotate(0,260,70)"/><rect x="265" y="5" width="10" height="10" transform="rotate(0,270,10)"/><rect x="265" y="65" width="10" height="10" transform="rotate(0,270,70)"/><rect x="275" y="5" width="10" height="10" transform="rotate(0,280,10)"/><rect x="275" y="65" width="10" height="10" transform="rotate(0,280,70)"/><path d="M 285 5v 10h 10v -5a 5 5, 0, 0, 0, -5 -5" transform="rotate(0,290,10)"/><rect x="285" y="15" width="10" height="10" transform="rotate(0,290,20)"/><rect x="285" y="25" width="10" height="10" transform="rotate(0,290,30)"/><rect x="285" y="35" width="10" height="10" transform="rotate(0,290,40)"/><rect x="285" y="45" width="10" height="10" transform="rotate(0,290,50)"/><rect x="285" y="55" width="10" height="10" transform="rotate(0,290,60)"/><path d="M 285 65v 10h 10v -5a 5 5, 0, 0, 0, -5 -5" transform="rotate(90,290,70)"/><path d="M 245 25v 10h 10v -5a 5 5, 0, 0, 0, -5 -5" transform="rotate(-90,250,30)"/><rect x="245" y="35" width="10" height="10" transform="rotate(0,250,40)"/><path d="M 245 45v 10h 10v -5a 5 5, 0, 0, 0, -5 -5" transform="rotate(180,250,50)"/><rect x="255" y="25" width="10" height="10" transform="rotate(0,260,30)"/><rect x="255" y="35" width="10" height="10" transform="rotate(0,260,40)"/><rect x="255" y="45" width="10" height="10" transform="rotate(0,260,50)"/><path d="M 265 25v 10h 10v -5a 5 5, 0, 0, 0, -5 -5" transform="rotate(0,270,30)"/><rect x="265" y="35" width="10" height="10" transform="rotate(0,270,40)"/><path d="M 265 45v 10h 10v -5a 5 5, 0, 0, 0, -5 -5" transform="rotate(90,270,50)"/><path d="M 5 225v 10h 10v -5a 5 5, 0, 0, 0, -5 -5" transform="rotate(-90,10,230)"/><rect x="5" y="235" width="10" height="10" transform="rotate(0,10,240)"/><rect x="5" y="245" width="10" height="10" transform="rotate(0,10,250)"/><rect x="5" y="255" width="10" height="10" transform="rotate(0,10,260)"/><rect x="5" y="265" width="10" height="10" transform="rotate(0,10,270)"/><rect x="5" y="275" width="10" height="10" transform="rotate(0,10,280)"/><path d="M 5 285v 10h 10v -5a 5 5, 0, 0, 0, -5 -5" transform="rotate(180,10,290)"/><rect x="15" y="225" width="10" height="10" transform="rotate(0,20,230)"/><rect x="15" y="285" width="10" height="10" transform="rotate(0,20,290)"/><rect x="25" y="225" width="10" height="10" transform="rotate(0,30,230)"/><rect x="25" y="285" width="10" height="10" transform="rotate(0,30,290)"/><rect x="35" y="225" width="10" height="10" transform="rotate(0,40,230)"/><rect x="35" y="285" width="10" height="10" transform="rotate(0,40,290)"/><rect x="45" y="225" width="10" height="10" transform="rotate(0,50,230)"/><rect x="45" y="285" width="10" height="10" transform="rotate(0,50,290)"/><rect x="55" y="225" width="10" height="10" transform="rotate(0,60,230)"/><rect x="55" y="285" width="10" height="10" transform="rotate(0,60,290)"/><path d="M 65 225v 10h 10v -5a 5 5, 0, 0, 0, -5 -5" transform="rotate(0,70,230)"/><rect x="65" y="235" width="10" height="10" transform="rotate(0,70,240)"/><rect x="65" y="245" width="10" height="10" transform="rotate(0,70,250)"/><rect x="65" y="255" width="10" height="10" transform="rotate(0,70,260)"/><rect x="65" y="265" width="10" height="10" transform="rotate(0,70,270)"/><rect x="65" y="275" width="10" height="10" transform="rotate(0,70,280)"/><path d="M 65 285v 10h 10v -5a 5 5, 0, 0, 0, -5 -5" transform="rotate(90,70,290)"/><path d="M 25 245v 10h 10v -5a 5 5, 0, 0, 0, -5 -5" transform="rotate(-90,30,250)"/><rect x="25" y="255" width="10" height="10" transform="rotate(0,30,260)"/><path d="M 25 265v 10h 10v -5a 5 5, 0, 0, 0, -5 -5" transform="rotate(180,30,270)"/><rect x="35" y="245" width="10" height="10" transform="rotate(0,40,250)"/><rect x="35" y="255" width="10" height="10" transform="rotate(0,40,260)"/><rect x="35" y="265" width="10" height="10" transform="rotate(0,40,270)"/><path d="M 45 245v 10h 10v -5a 5 5, 0, 0, 0, -5 -5" transform="rotate(0,50,250)"/><rect x="45" y="255" width="10" height="10" transform="rotate(0,50,260)"/><path d="M 45 265v 10h 10v -5a 5 5, 0, 0, 0, -5 -5" transform="rotate(90,50,270)"/></clipPath></defs><rect x="0" y="0" height="300" width="300" clip-path="url('#clip-path-background-color')" fill="#ffffff"/><rect x="5" y="5" height="290" width="290" clip-path="url('#clip-path-dot-color')" fill="#2575e1"/><image href="https://upload.wikimedia.org/wikipedia/commons/5/51/Facebook_f_logo_%282019%29.svg" x="115" y="115" width="70px" height="70px"/></svg>